<svg xmlns="http://www.w3.org/2000/svg" viewBox="0 0 512 512" role="img" aria-label="Semear Paroquial">
  <defs>
    <linearGradient id="goldStroke" x1="0%" y1="0%" x2="100%" y2="100%">
      <stop offset="0%" stop-color="#f8e8a3"/>
      <stop offset="28%" stop-color="#f1cf72"/>
      <stop offset="58%" stop-color="#c99638"/>
      <stop offset="100%" stop-color="#8a5b16"/>
    </linearGradient>
    <filter id="softShadow" x="-20%" y="-20%" width="140%" height="140%">
      <feDropShadow dx="0" dy="8" stdDeviation="10" flood-color="#9b6d1d" flood-opacity="0.22"/>
    </filter>
  </defs>

  <g fill="none" stroke="url(#goldStroke)" stroke-linecap="round" stroke-linejoin="round" filter="url(#softShadow)">
    <path d="M256 66 C168 74,100 146,100 236 C100 353,184 442,256 448 C328 442,412 353,412 236 C412 146,344 74,256 66 Z" stroke-width="13"/>
    <path d="M227 89 C250 122,251 172,236 216 C248 200,256 191,256 191 C256 191,265 200,277 216 C262 172,263 122,286 89" stroke-width="12"/>

    <path d="M256 211 L256 367" stroke-width="14"/>
    <path d="M225 252 L287 252" stroke-width="12"/>

    <path d="M256 366 C229 306,194 260,144 228" stroke-width="12"/>
    <path d="M256 366 C283 306,318 260,368 228" stroke-width="12"/>

    <path d="M180 160 C204 170,214 198,208 232 C182 226,166 199,180 160 Z" stroke-width="10"/>
    <path d="M332 160 C308 170,298 198,304 232 C330 226,346 199,332 160 Z" stroke-width="10"/>

    <path d="M134 210 C168 212,193 236,198 272 C162 275,138 248,134 210 Z" stroke-width="10"/>
    <path d="M378 210 C344 212,319 236,314 272 C350 275,374 248,378 210 Z" stroke-width="10"/>

    <path d="M150 286 C196 284,225 313,228 355 C182 358,152 328,150 286 Z" stroke-width="10"/>
    <path d="M362 286 C316 284,287 313,284 355 C330 358,360 328,362 286 Z" stroke-width="10"/>

    <path d="M128 332 C144 393,188 430,236 446" stroke-width="12"/>
    <path d="M384 332 C368 393,324 430,276 446" stroke-width="12"/>
  </g>
</svg>
